DBRep_DrawableShape

CASCADE Topology V1, (c) Matra-Datavision
Locations 1
1
              1               0               0               0 
              0               1               0               0 
              0               0               1               0 
Curve2ds 52
1 0 -8 1 0 
1 0 -8 1 0 
1 0 -0.67650000000000077 1 0 
1 0 0 1 0 
1 6.2831853071795862 0 0 1 
1 0 0 0 1 
1 0 0.95671547494539932 1 0 
1 6.2831853071795862 0 0 1 
1 0 0 0 1 
1 9.4247779607693793 0 -1 0 
1 9.4247779607693793 1.4142135623730949 -1 0 
1 0 -1 1 0 
1 9.4247779607693793 0 0 1 
1 3.1415926535897931 0 0 1 
1 0 -19.5 1 0 
1 0 0 1 0 
1 6.2831853071795862 0 0 1 
1 0 0 0 1 
1 0 -0.70710678118654746 1 0 
1 6.2831853071795862 0 0 1 
1 0 0 0 1 
1 0 -20 1 0 
1 0 -14.41 1 0 
1 9.4247779607693793 0 -1 0 
1 6.2831853071795862 0 0 1 
1 0 0 0 1 
1 9.4247779607693793 -1.8301356135848783 -1 0 
7 0 0  3 25 23  1.5707963267948966 0.58062526491751121  1.6659961041764042 0.5806252649175111  1.856395658939423 0.58062526491751121  2.1419949910839495 0.58062526491751099  2.427594323228476 0.58062526491751132  2.7131936553730043 0.58062526491751087  2.998792987517529 0.58062526491751143  3.2843923196620572 0.58062526491751099  3.5699916518065837 0.58062526491751132  3.8555909839511084 0.5806252649175111  4.1411903160956385 0.58062526491751132  4.4267896482401632 0.58062526491751099  4.7123889803846906 0.58062526491751132  4.9979883125292162 0.58062526491751121  5.2835876446737418 0.58062526491751121  5.56918697681827 0.5806252649175111  5.8547863089627965 0.5806252649175111  6.140385641107323 0.58062526491751143  6.4259849732518486 0.5806252649175111  6.7115843053963777 0.58062526491751143  6.9971836375408998 0.58062526491751099  7.2827829696854316 0.58062526491751132  7.568382301829959 0.58062526491751121  7.7587818565929743 0.5806252649175111  7.8539816339744819 0.58062526491751121 
 0 4 0.28559933214452665 1 0.5711986642890533 1 0.8567979964335799 1 1.1423973285781066 1 1.4279966607226333 1 1.7135959928671598 1 1.9991953250116865 1 2.2847946571562132 1 2.5703939893007397 1 2.8559933214452666 1 3.1415926535897931 1 3.4271919857343196 1 3.7127913178788465 1 3.998390650023373 1 4.2839899821678999 1 4.5695893143124264 1 4.8551886464569529 1 5.1407879786014794 1 5.4263873107460068 1 5.7119866428905333 1 5.9975859750350597 1 6.2831853071795862 4
1 9.4247779607693793 0 0 1 
1 3.1415926535897931 0 0 1 
1 6.2831853071795862 0 0 1 
1 0 0 0 1 
1 3.1415926535897931 -11.23 -1 0 
1 4.7123889803846897 0.92729521800161208 -1 0 
1 9.4247779607693793 -11.23 -1 0 
7 0 0  3 25 23  1.5707963267948966 0.92729521800161208  1.5231964381041418 0.92729521800161219  1.4279966607226324 0.92729521800161196  1.2851969946503701 0.9272952180016123  1.1423973285781059 0.92729521800161163  0.99959766250584359 0.92729521800161196  0.85679799643357946 0.92729521800161208  0.7139983303613171 0.92729521800161174  0.57119866428905297 0.92729521800161174  0.42839899821678884 0.92729521800161196  0.28559933214452649 0.92729521800161185  0.14279966607226413 0.92729521800161174  0 0.92729521800161163  -0.14279966607226413 0.92729521800161163  -0.28559933214452649 0.92729521800161174  -0.42839899821678884 0.92729521800161185  -0.57119866428905297 0.92729521800161163  -0.71399833036131533 0.92729521800161219  -0.85679799643357946 0.92729521800161185  -0.99959766250584181 0.92729521800161196  -1.1423973285781059 0.92729521800161196  -1.2851969946503701 0.92729521800161174  -1.4279966607226324 0.92729521800161196  -1.5231964381041418 0.92729521800161219  -1.5707963267948948 0.92729521800161208 
 3.1415926535897931 4 3.2843923196620564 1 3.4271919857343196 1 3.5699916518065828 1 3.7127913178788465 1 3.8555909839511098 1 3.998390650023373 1 4.1411903160956367 1 4.2839899821678999 1 4.4267896482401632 1 4.5695893143124264 1 4.7123889803846897 1 4.8551886464569529 1 4.9979883125292162 1 5.1407879786014794 1 5.2835876446737426 1 5.4263873107460068 1 5.5691869768182691 1 5.7119866428905333 1 5.8547863089627965 1 5.9975859750350597 1 6.140385641107323 1 6.2831853071795862 4
1 9.4247779607693793 -11.23 -1 0 
7 0 0  3 25 23  7.8539816339744828 0.92729521800161208  7.8063817452837281 0.92729521800161219  7.7111819679022187 0.92729521800161196  7.5683823018299563 0.9272952180016123  7.4255826357576922 0.92729521800161163  7.2827829696854298 0.92729521800161196  7.1399833036131657 0.92729521800161208  6.9971836375409033 0.92729521800161174  6.8543839714686392 0.92729521800161174  6.7115843053963751 0.92729521800161196  6.5687846393241127 0.92729521800161185  6.4259849732518504 0.92729521800161174  6.2831853071795862 0.92729521800161163  6.1403856411073221 0.92729521800161163  5.9975859750350597 0.92729521800161174  5.8547863089627974 0.92729521800161185  5.7119866428905333 0.92729521800161163  5.5691869768182709 0.92729521800161219  5.4263873107460068 0.92729521800161185  5.2835876446737444 0.92729521800161196  5.1407879786014803 0.92729521800161196  4.9979883125292162 0.92729521800161174  4.8551886464569538 0.92729521800161196  4.7599888690754444 0.92729521800161219  4.7123889803846915 0.92729521800161208 
 3.1415926535897931 4 3.2843923196620564 1 3.4271919857343196 1 3.5699916518065828 1 3.7127913178788465 1 3.8555909839511098 1 3.998390650023373 1 4.1411903160956367 1 4.2839899821678999 1 4.4267896482401632 1 4.5695893143124264 1 4.7123889803846897 1 4.8551886464569529 1 4.9979883125292162 1 5.1407879786014794 1 5.2835876446737426 1 5.4263873107460068 1 5.5691869768182691 1 5.7119866428905333 1 5.8547863089627965 1 5.9975859750350597 1 6.140385641107323 1 6.2831853071795862 4
1 6.2831853071795862 0 0 1 
1 0 0 0 1 
1 6.2831853071795862 1.5707963267948966 -1 0 
7 0 0  3 25 23  1.5707963267948966 -0.58156620170076867  1.6659961041764051 -0.58156620170076867  1.856395658939423 -0.581566201700769  2.1419949910839478 -0.58156620170076867  2.4275943232284778 -0.581566201700769  2.7131936553730025 -0.58156620170076889  2.998792987517529 -0.58156620170076889  3.2843923196620572 -0.58156620170076889  3.5699916518065837 -0.581566201700769  3.8555909839511084 -0.58156620170076889  4.1411903160956385 -0.581566201700769  4.4267896482401632 -0.58156620170076878  4.7123889803846915 -0.58156620170076867  4.9979883125292162 -0.58156620170076867  5.2835876446737426 -0.58156620170076856  5.5691869768182691 -0.58156620170076823  5.8547863089627974 -0.58156620170076867  6.1403856411073221 -0.58156620170076834  6.4259849732518486 -0.58156620170076856  6.7115843053963786 -0.58156620170076856  6.9971836375408998 -0.58156620170076834  7.2827829696854316 -0.58156620170076856  7.5683823018299563 -0.58156620170076878  7.7587818565929734 -0.58156620170076867  7.8539816339744828 -0.58156620170076867 
 0 4 0.28559933214452665 1 0.5711986642890533 1 0.8567979964335799 1 1.1423973285781066 1 1.4279966607226333 1 1.7135959928671598 1 1.9991953250116865 1 2.2847946571562132 1 2.5703939893007397 1 2.8559933214452666 1 3.1415926535897931 1 3.4271919857343196 1 3.7127913178788465 1 3.998390650023373 1 4.2839899821678999 1 4.5695893143124264 1 4.8551886464569529 1 5.1407879786014794 1 5.4263873107460068 1 5.7119866428905333 1 5.9975859750350597 1 6.2831853071795862 4
1 7.8539816339744828 0 0 1 
1 1.5707963267948966 0 0 1 
1 0 0 1 0 
1 0 0.70710678118654746 1 0 
1 0 -13.77 1 0 
1 6.2831853071795862 0 0 1 
1 0 0 0 1 
1 0 -11.620000000000001 1 0 
1 6.2831853071795862 0 0 1 
1 0 0 0 1 
Curves 28
2 0 -9.2300000000000004 0 0 -1 0 0 0 -1 1 0 0 3.3235000000000001
2 0 -9.2300000000000004 0 0 -1 0 0 0 -1 1 0 0 4.5
2 0 -16.5535 0 0 -1 0 0 0 -1 1 0 0 3.3235000000000001
7 0 0  1 2 2  -8.1000000000000005e-16 -9.2300000000000004 -3.3235000000000001  -8.1000000000000005e-16 -16.5535 -3.3235000000000001 
 -8 2 -0.67650000000000077 2
2 0 -17.23 0 0 -1 0 0 0 -1 1 0 0 4
7 0 0  1 2 2  -8.1000000000000005e-16 -16.5535 -3.3235000000000001  -9.7999999999999995e-16 -17.23 -3.9999999999999991 
 0 2 0.95671547494539932 2
2 0 -17.23 0 0 -1 0 0 0 -1 1 0 0 8.5
2 0 -16.23 0 0 -1 0 0 0 -1 1 0 0 9.5
7 0 0  1 2 2  3.1199999999999998e-15 -17.23 -8.5  3.4899999999999999e-15 -16.23 -9.4999999999999982 
 0 2 1.4142135623730949 2
2 0 2.27 0 0 -1 0 0 0 -1 1 0 0 9.5
7 0 0  1 2 2  0 2.2699999999999996 -9.5  0 -16.23 -9.5 
 -19.5 2 -1 2
2 0 2.77 0 0 -1 0 0 0 -1 1 0 0 9
7 0 0  1 2 2  0 2.7700000000000005 -9  0 2.27 -9.5 
 -0.70710678118654746 2 0 2
2 0 2.77 0 0 -1 0 0 0 -1 1 0 0 7.5650000000000004
2 0 -2.8199999999999998 0 0 -1 0 0 0 -1 1 0 0 7.5650000000000004
7 0 0  1 2 2  -1.8500000000000001e-15 2.7699999999999996 -7.5650000000000004  -1.8500000000000001e-15 -2.8200000000000003 -7.5650000000000004 
 -20 2 -14.41 2
2 2.6e-15 -4.11410130285687 0 0 -1 0 0 0 -1 1 0 0 6.2708986971431298
7 0 0  1 2 2  7.6999999999999999e-16 -4.1141013028568709 -6.2708986971431306  9.2999999999999993e-16 -2.8199999999999998 -7.5650000000000004 
 -1.8301356135848783 2 0 2
7 0 0  1 2 2  -1.0999999999999999e-15 -6 -4.5  -1.0999999999999999e-15 -9.2300000000000004 -4.5 
 -11.23 2 -8 2
2 0 -6 0 0 1 0 0 -0 1 1 0 -0 4.5
7 0 0  5 6 2  -4.5 -5.9999999999999982 0  -3.7277986694480569 -6.579150997913958 0  -2.8624321646378288 -7.0340895439432698 0  -1.9305079946557011 -7.3447309339373126 0  -0.96525166318992672 -7.5000000000000036 0  2.6599999999999998e-15 -7.5000000000000009 0 
 0.92729521800161163 6 1.5707963267948966 6
2 0 4.1200000000000001 0 0 -1 0 0 0 -1 1 0 0 6.2670248124608499
7 0 0  6 7 2  1.9099999999999999e-15 4.1200000000000028 -6.2670248124608525  1.82e-15 2.9060862069788334 -7.0650629528720774  1.76e-15 1.5067047005450684 -7.5809394627505462  1.7400000000000001e-15 0.0036511990941445801 -7.760773921751678  1.76e-15 -1.499570849815979 -7.5823538204778602  1.82e-15 -2.8994371438823041 -7.0677942683070416  1.9099999999999999e-15 -4.1141013028568718 -6.2708986971431306 
 -0.58156620170076867 7 0.58062526491751132 7
2 0 6.7699999999999996 0 0 -1 0 0 0 -1 1 0 0 5.5000000000000098
2 0 6.2699999999999996 0 0 -1 0 0 0 -1 1 0 0 6.0000000000000098
7 0 0  1 2 2  -1.35e-15 6.7699999999999996 -5.5000000000000098  -1.47e-15 6.2699999999999996 -6.0000000000000098 
 0 2 0.70710678118654746 2
2 0 4.1200000000000001 0 0 -1 0 0 0 -1 1 0 0 6.0000000000000098
7 0 0  1 2 2  -1.47e-15 6.2699999999999996 -6.0000000000000098  -1.47e-15 4.120000000000001 -6.0000000000000098 
 -13.77 2 -11.620000000000001 2
Polygon3D 0
PolygonOnTriangulations 0
Surfaces 17
1 4.5 -9.2300000000000004 0 0 1 0 0 -0 1 1 0 -0 
10 0 6.2831853071795862 -8 -0.67650000000000077
2 0 -17.23 0 0 -1 0 0 0 -1 1 0 0 3.3235000000000001
10 0 6.2831853071795862 -11.23 -8
2 0 -17.23 0 0 -1 0 0 0 -1 1 0 0 4.5
10 0 6.2831853071795862 0 0.95671547494539932
3 0 -16.5535 0 0 -1 0 0 0 -1 1 0 0 3.3235000000000001
0.78539816339744595
1 4 -17.23 0 0 -1 0 0 0 -1 1 0 0 
10 3.1415926535897931 9.4247779607693793 0 1.4142135623730949
3 0 -17.23 0 0 1 0 0 -0 1 1 0 -0 8.5
0.78539816339744695
10 0 6.2831853071795862 -19.5 -1
2 0 -17.23 0 0 -1 0 0 0 -1 1 0 0 9.5
10 0 6.2831853071795862 -0.70710678118654746 0
3 0 2.27 0 0 -1 0 0 0 -1 1 0 0 9.5
0.78539816339744695
1 9 2.77 0 0 1 0 0 -0 1 1 0 -0 
10 0 6.2831853071795862 -20 -14.41
2 0 -17.23 0 0 -1 0 0 0 -1 1 0 0 7.5650000000000004
10 3.1415926535897931 9.4247779607693793 -1.8301356135848783 0
3 0 -2.8199999999999998 0 0 1 0 0 -0 1 1 0 -0 7.5650000000000004
0.78539816339744795
10 1.5707963267948966 7.8539816339744828 -1.5707963267948966 1.5707963267948966
4 2.6e-15 -1.52e-15 0 0 -1 0 -1 0 0 -0 -0 -1 7.5
10 0 6.2831853071795862 -1.5707963267948966 1.5707963267948966
4 2.6e-15 -1.52e-15 0 0 -1 0 -1 0 0 -0 -0 -1 7.5
1 6.0000000000000098 4.1200000000000001 0 0 -1 0 0 0 -1 1 0 0 
1 0 6.7699999999999996 0 0 -1 0 0 0 -1 1 0 0 
10 0 6.2831853071795862 0 0.70710678118654746
3 0 6.7699999999999996 0 0 -1 0 0 0 -1 1 0 0 5.5000000000000098
0.78539816339744795
10 0 6.2831853071795862 -13.77 -11.620000000000001
2 0 -7.5 0 0 -1 0 0 0 -1 1 0 0 6.0000000000000098
Triangulations 0

TShapes 91
Ve
1e-05
0 -9.23 -3.3235
0 0

0101101
*
Ed
 1e-07 1 1 0
1  1 0 0 6.28318530717959
2  1 2 0 0 6.28318530717959
4 C0 1 0 2 0
0

0101000
+91 0 -91 0 *
Wi

0101100
+90 0 *
Ve
1e-05
0 -9.23 -4.5
0 0

0101101
*
Ed
 1e-07 1 1 0
1  2 0 0 6.28318530717959
2  2 3 0 0 6.28318530717959
4 C0 1 0 3 0
0

0101000
-88 0 +88 0 *
Wi

0101100
-87 0 *
Fa
0  1e-07 1 0

0101000
+89 0 +86 0 *
Ve
1e-05
0 -16.5535 -3.3235
0 0

0101101
*
Ed
 1e-07 1 1 0
1  3 0 0 6.28318530717959
2  3 2 0 0 6.28318530717959
2  4 4 0 0 6.28318530717959
4 C0 2 0 4 0
0

0101000
+84 0 -84 0 *
Ed
 1e-05 1 1 0
1  4 0 -8 -0.676500000000001
3  5 6CN 2 0 -8 -0.676500000000001
0

0101000
-84 0 +91 0 *
Wi

0101100
-83 0 -82 0 +90 0 +82 0 *
Fa
0  1e-07 2 0

0101000
+81 0 *
Ve
1e-05
0 -17.23 -4
0 0

0101101
*
Ed
 1e-07 1 1 0
1  5 0 0 6.28318530717959
2  7 4 0 0 6.28318530717959
4 C0 4 0 5 0
0

0101000
-79 0 +79 0 *
Ed
 1e-05 1 1 0
1  6 0 0 0.956715474945399
3  8 9CN 4 0 0 0.956715474945399
0

0101000
-79 0 +84 0 *
Wi

0101100
-78 0 -77 0 +83 0 +77 0 *
Fa
0  1e-07 4 0

0101000
+76 0 *
Ve
1e-05
0 -17.23 -8.5
0 0

0101101
*
Ed
 1e-07 1 1 0
1  7 0 0 6.28318530717959
2  10 6 0 0 6.28318530717959
4 C0 5 0 6 0
0

0101000
-74 0 +74 0 *
Wi

0101100
+73 0 *
Wi

0101100
-78 0 *
Fa
0  1e-07 5 0

0101000
+72 0 +71 0 *
Ve
1e-05
0 -16.23 -9.5
0 0

0101101
*
Ed
 1e-07 1 1 0
1  8 0 0 6.28318530717959
2  11 6 0 0 6.28318530717959
2  12 7 0 0 6.28318530717959
4 C0 6 0 7 0
0

0101000
-69 0 +69 0 *
Ed
 1e-05 1 1 0
1  9 0 0 1.41421356237309
3  13 14CN 6 0 0 1.41421356237309
0

0101000
-69 0 +74 0 *
Wi

0101100
+68 0 -67 0 -73 0 +67 0 *
Fa
0  1e-07 6 0

0101000
+66 0 *
Ve
1e-05
0 2.27 -9.5
0 0

0101101
*
Ed
 1e-07 1 1 0
1  10 0 0 6.28318530717959
2  15 7 0 0 6.28318530717959
2  16 8 0 0 6.28318530717959
4 C0 7 0 8 0
0

0101000
-64 0 +64 0 *
Ed
 1e-05 1 1 0
1  11 0 -19.5 -1
3  17 18CN 7 0 -19.5 -1
0

0101000
+64 0 -69 0 *
Wi

0101100
+63 0 +62 0 -68 0 -62 0 *
Fa
0  1e-07 7 0

0101000
+61 0 *
Ve
1e-05
0 2.77 -9
0 0

0101101
*
Ed
 1e-07 1 1 0
1  12 0 0 6.28318530717959
2  19 8 0 0 6.28318530717959
4 C0 8 0 9 0
0

0101000
+59 0 -59 0 *
Ed
 1e-05 1 1 0
1  13 0 -0.707106781186547 0
3  20 21CN 8 0 -0.707106781186547 0
0

0101000
+59 0 -64 0 *
Wi

0101100
+58 0 +57 0 -63 0 -57 0 *
Fa
0  1e-07 8 0

0101000
+56 0 *
Ve
1e-05
0 2.77 -7.565
0 0

0101101
*
Ed
 1e-07 1 1 0
1  14 0 0 6.28318530717959
2  22 10 0 0 6.28318530717959
4 C0 9 0 10 0
0

0101000
+54 0 -54 0 *
Wi

0101100
+53 0 *
Wi

0101100
-58 0 *
Fa
0  1e-07 9 0

0101000
+52 0 +51 0 *
Ve
1e-05
0 -2.82 -7.565
0 0

0101101
*
Ed
 1e-07 1 1 0
1  15 0 0 6.28318530717959
2  23 10 0 0 6.28318530717959
2  24 11 0 0 6.28318530717959
4 C0 10 0 11 0
0

0101000
+49 0 -49 0 *
Ed
 1e-05 1 1 0
1  16 0 -20 -14.41
3  25 26CN 10 0 -20 -14.41
0

0101000
-49 0 +54 0 *
Wi

0101100
-48 0 -47 0 +53 0 +47 0 *
Fa
0  1e-07 10 0

0101000
+46 0 *
Ve
1e-05
3e-15 -4.11410130285687 -6.27089869714313
0 0

0101101
*
Ed
 1e-07 1 1 0
1  17 0 0 6.28318530717959
2  27 11 0 0 6.28318530717959
2  28 12 0 0 6.28318530717959
4 C0 11 0 12 0
0

0101000
-44 0 +44 0 *
Ed
 1e-05 1 1 0
1  18 0 -1.83013561358488 0
3  29 30CN 11 0 -1.83013561358488 0
0

0101000
+44 0 -49 0 *
Wi

0101100
-43 0 +42 0 +48 0 -42 0 *
Fa
0  1e-07 11 0

0101000
+41 0 *
Ve
1e-05
-1e-15 -6 -4.5
0 0

0101101
*
Ed
 1e-05 1 1 0
1  19 0 -11.23 -8
3  31 32CN 3 0 -11.23 -8
0

0101000
-88 0 +39 0 *
Ve
1e-07
0 -6 4.5
0 0

0101101
*
Ed
 1e-07 1 1 0
1  20 0 0 3.14159265358979
2  33 3 0 0 3.14159265358979
2  34 13 0 0 3.14159265358979
4 C0 3 0 13 0
0

0101000
-39 0 +37 0 *
Ve
1e-05
-4.5 -6 1e-15
0 0

0101101
*
Ed
 1e-07 1 1 0
1  20 0 3.14159265358979 4.71238898038469
2  35 3 0 3.14159265358979 4.71238898038469
2  36 13 0 3.14159265358979 4.71238898038469
4 C0 3 0 13 0
0

0101000
-35 0 +39 0 *
Ed
 1e-07 1 1 0
1  20 0 4.71238898038469 6.28318530717959
2  37 3 0 4.71238898038469 6.28318530717959
2  38 13 0 4.71238898038469 6.28318530717959
4 C0 3 0 13 0
0

0101000
-37 0 +35 0 *
Wi

0101100
-87 0 -38 0 -36 0 -34 0 -33 0 +38 0 *
Fa
0  1e-07 3 0

0101000
+32 0 *
Ve
1e-05
2e-15 -7.5 0
0 0

0101101
*
Ed
 1e-05 1 1 0
1  21 0 0.927295218001612 1.5707963267949
3  39 40CN 13 0 0.927295218001612 1.5707963267949
0

0101000
+35 0 -30 0 *
Ed
 1e-07 1 1 1
2  41 13 0 0 6.28318530717959
0

0101000
+30 0 -30 0 *
Wi

0101100
-36 0 -33 0 +29 0 +28 0 -29 0 -34 0 *
Fa
0  1e-07 13 0

0101000
+27 0 *
Ve
1e-05
0 4.12 -6.26702481246085
0 0

0101101
*
Ed
 1e-07 1 1 0
1  22 0 0 6.28318530717959
2  42 12 0 0 6.28318530717959
4 C0 12 0 14 0
0

0101000
+25 0 -25 0 *
Ed
 1e-05 1 1 0
1  23 0 -0.581566201700769 0.580625264917511
3  43 44CN 12 0 -0.581566201700769 0.580625264917511
0

0101000
+25 0 -44 0 *
Wi

0101100
+24 0 +23 0 -43 0 -23 0 *
Fa
0  1e-07 12 0

0101000
+22 0 *
Ve
1e-05
0 6.77 -5.50000000000001
0 0

0101101
*
Ed
 1e-07 1 1 0
1  24 0 0 6.28318530717959
2  45 16 0 0 6.28318530717959
4 C0 15 0 16 0
0

0101000
+20 0 -20 0 *
Wi

0101100
-19 0 *
Fa
0  1e-07 15 0

0101000
-18 0 *
Ve
1e-05
0 6.27 -6.00000000000001
0 0

0101101
*
Ed
 1e-07 1 1 0
1  25 0 0 6.28318530717959
2  46 16 0 0 6.28318530717959
2  47 17 0 0 6.28318530717959
4 C0 16 0 17 0
0

0101000
+16 0 -16 0 *
Ed
 1e-05 1 1 0
1  26 0 0 0.707106781186547
3  48 49CN 16 0 0 0.707106781186547
0

0101000
-16 0 +20 0 *
Wi

0101100
-15 0 -14 0 +19 0 +14 0 *
Fa
0  1e-07 16 0

0101000
+13 0 *
Ve
1e-05
0 4.12 -6.00000000000001
0 0

0101101
*
Ed
 1e-07 1 1 0
1  27 0 0 6.28318530717959
2  50 17 0 0 6.28318530717959
4 C0 17 0 14 0
0

0101000
-11 0 +11 0 *
Ed
 1e-05 1 1 0
1  28 0 -13.77 -11.62
3  51 52CN 17 0 -13.77 -11.62
0

0101000
-11 0 +16 0 *
Wi

0101100
-10 0 -9 0 +15 0 +9 0 *
Fa
0  1e-07 17 0

0101000
+8 0 *
Wi

0101100
-24 0 *
Wi

0101100
+10 0 *
Fa
0  1e-07 14 0

0101000
-6 0 -5 0 *
Sh

0101100
+85 0 -80 0 -75 0 +70 0 +65 0 +60 0 +55 0 +50 0 -45 0 -40 0 
-31 0 +26 0 +21 0 -17 0 +12 0 +7 0 -4 0 *
So

0100000
+3 0 *
Co

1100000
+2 1 *

+1 0 