DBRep_DrawableShape

CASCADE Topology V1, (c) Matra-Datavision
Locations 1
1
              1               0               0               0 
              0               1               0               0 
              0               0               1               0 
Curve2ds 28
1 0 0 1 0 
1 9.4247779607693793 0 -1 0 
1 0 0.99999999999993272 1 0 
1 0 -24.2928932188135 1 0 
1 6.2831853071795862 0 0 1 
1 0 0 0 1 
1 0 -0.70710678118654502 1 0 
1 9.4247779607693793 0 -1 0 
1 6.2831853071795862 0 0 1 
1 0 0 0 1 
1 9.4247779607693793 -0.99999999999996458 -1 0 
1 9.4247779607693793 0 0 1 
1 3.1415926535897931 0 0 1 
1 0 0.70710678118654746 1 0 
1 9.4247779607693793 -0.70710678118654746 -1 0 
1 0 -24.5 1 0 
1 9.4247779607693793 0 0 1 
1 3.1415926535897931 0 0 1 
1 0 -7 1 0 
1 6.2831853071795862 0 0 1 
1 0 0 0 1 
1 0 -7 1 0 
1 0 -0.5 1 0 
1 0 0 1 0 
1 6.2831853071795862 0 0 1 
1 0 0 0 1 
1 6.2831853071795862 0 0 1 
1 0 0 0 1 
Curves 17
2 0 25 0 0 -1 0 0 0 -1 1 0 0 19.2928932188135
2 0 25 0 0 -1 0 0 0 -1 1 0 0 10.5
2 0 24.2928932188135 0 0 -1 0 0 0 -1 1 0 0 20
7 0 0  1 2 2  -4.7299999999999999e-15 25 -19.2928932188135  -4.8999999999999999e-15 24.2928932188135 -20 
 0 2 0.99999999999993272 2
2 0 0.70710678118654502 0 0 -1 0 0 0 -1 1 0 0 20
7 0 0  1 2 2  -4.8999999999999999e-15 24.2928932188135 -20  -4.8999999999999999e-15 0.70710678118654613 -20 
 -24.2928932188135 2 -0.70710678118654613 2
2 0 0 0 0 -1 0 0 0 -1 1 0 0 19.2928932188135
7 0 0  1 2 2  2.3600000000000001e-15 2.232e-14 -19.292893218813479  2.45e-15 0.70710678118654502 -20 
 -0.99999999999996458 2 0 2
2 0 0 0 0 -1 0 0 0 -1 1 0 0 7.25
2 0 24.5 0 0 -1 0 0 0 -1 1 0 0 10
7 0 0  1 2 2  1.2199999999999999e-15 24.5 -10  1.2900000000000001e-15 25 -10.5 
 -0.70710678118654746 2 0 2
2 0 7 0 0 -1 0 0 0 -1 1 0 0 10
7 0 0  1 2 2  -2.45e-15 24.5 -10  -2.45e-15 7 -10 
 -24.5 2 -7 2
2 0 7 0 0 -1 0 0 0 -1 1 0 0 6.75
2 0 0.5 0 0 -1 0 0 0 -1 1 0 0 6.75
7 0 0  1 2 2  -1.65e-15 7 -6.75  -1.65e-15 0.5 -6.75 
 -7 2 -0.5 2
7 0 0  1 2 2  -1.65e-15 0.5 -6.75  -1.7800000000000001e-15 -1.1e-16 -7.25 
 0 2 0.70710678118654746 2
Polygon3D 0
PolygonOnTriangulations 0
Surfaces 10
1 0 25 0 0 -1 0 0 0 -1 1 0 0 
10 0 6.2831853071795862 0 0.99999999999993272
3 0 25 0 0 -1 0 0 0 -1 1 0 0 19.2928932188135
0.78539816339744595
10 3.1415926535897931 9.4247779607693793 -0.70710678118654746 0
3 0 25 0 0 1 0 0 -0 1 1 0 -0 10.5
0.78539816339744695
10 0 6.2831853071795862 -24.2928932188135 -0.70710678118654613
2 0 0 0 0 -1 0 0 0 -1 1 0 0 20
10 3.1415926535897931 9.4247779607693793 -0.99999999999996458 0
3 0 0.70710678118654502 0 0 1 0 0 -0 1 1 0 -0 20
0.78539816339744795
1 19.2928932188135 0 0 0 1 0 0 -0 1 1 0 -0 
10 0 6.2831853071795862 0 0.70710678118654746
3 0 0.5 0 0 -1 0 0 0 -1 1 0 0 6.75
0.78539816339744795
10 0 6.2831853071795862 -24.5 -7
2 0 0 0 0 -1 0 0 0 -1 1 0 0 10
1 10 7 0 0 1 0 0 -0 1 1 0 -0 
10 0 6.2831853071795862 -7 -0.5
2 0 0 0 0 -1 0 0 0 -1 1 0 0 6.75
Triangulations 0

TShapes 53
Ve
1e-05
0 25 -19.2928932188135
0 0

0101101
*
Ed
 1e-07 1 1 0
1  1 0 0 6.28318530717959
2  1 2 0 0 6.28318530717959
4 C0 1 0 2 0
0

0101000
+53 0 -53 0 *
Wi

0101100
-52 0 *
Ve
1e-05
0 25 -10.5
0 0

0101101
*
Ed
 1e-07 1 1 0
1  2 0 0 6.28318530717959
2  2 3 0 0 6.28318530717959
4 C0 1 0 3 0
0

0101000
+50 0 -50 0 *
Wi

0101100
+49 0 *
Fa
0  1e-07 1 0

0101000
-51 0 -48 0 *
Ve
1e-05
0 24.2928932188135 -20
0 0

0101101
*
Ed
 1e-07 1 1 0
1  3 0 0 6.28318530717959
2  3 2 0 0 6.28318530717959
2  4 4 0 0 6.28318530717959
4 C0 2 0 4 0
0

0101000
+46 0 -46 0 *
Ed
 1e-05 1 1 0
1  4 0 0 0.999999999999933
3  5 6CN 2 0 0 0.999999999999933
0

0101000
-46 0 +53 0 *
Wi

0101100
-45 0 -44 0 +52 0 +44 0 *
Fa
0  1e-07 2 0

0101000
+43 0 *
Ve
1e-05
0 0.707106781186545 -20
0 0

0101101
*
Ed
 1e-07 1 1 0
1  5 0 0 6.28318530717959
2  7 4 0 0 6.28318530717959
2  8 5 0 0 6.28318530717959
4 C0 4 0 5 0
0

0101000
+41 0 -41 0 *
Ed
 1e-05 1 1 0
1  6 0 -24.2928932188135 -0.707106781186546
3  9 10CN 4 0 -24.2928932188135 -0.707106781186546
0

0101000
-41 0 +46 0 *
Wi

0101100
-40 0 -39 0 +45 0 +39 0 *
Fa
0  1e-07 4 0

0101000
+38 0 *
Ve
1e-05
0 0 -19.2928932188135
0 0

0101101
*
Ed
 1e-07 1 1 0
1  7 0 0 6.28318530717959
2  11 5 0 0 6.28318530717959
4 C0 5 0 6 0
0

0101000
-36 0 +36 0 *
Ed
 1e-05 1 1 0
1  8 0 -0.999999999999965 0
3  12 13CN 5 0 -0.999999999999965 0
0

0101000
+36 0 -41 0 *
Wi

0101100
-35 0 +34 0 +40 0 -34 0 *
Fa
0  1e-07 5 0

0101000
+33 0 *
Ve
1e-05
0 0 -7.25
0 0

0101101
*
Ed
 1e-07 1 1 0
1  9 0 0 6.28318530717959
2  14 7 0 0 6.28318530717959
4 C0 6 0 7 0
0

0101000
-31 0 +31 0 *
Wi

0101100
-30 0 *
Wi

0101100
+35 0 *
Fa
0  1e-07 6 0

0101000
-29 0 -28 0 *
Ve
1e-05
0 24.5 -10
0 0

0101101
*
Ed
 1e-07 1 1 0
1  10 0 0 6.28318530717959
2  15 3 0 0 6.28318530717959
2  16 8 0 0 6.28318530717959
4 C0 3 0 8 0
0

0101000
+26 0 -26 0 *
Ed
 1e-05 1 1 0
1  11 0 -0.707106781186547 0
3  17 18CN 3 0 -0.707106781186547 0
0

0101000
+26 0 -50 0 *
Wi

0101100
-25 0 +24 0 +49 0 -24 0 *
Fa
0  1e-07 3 0

0101000
+23 0 *
Ve
1e-05
0 7 -10
0 0

0101101
*
Ed
 1e-07 1 1 0
1  12 0 0 6.28318530717959
2  19 8 0 0 6.28318530717959
4 C0 8 0 9 0
0

0101000
-21 0 +21 0 *
Ed
 1e-05 1 1 0
1  13 0 -24.5 -7
3  20 21CN 8 0 -24.5 -7
0

0101000
-21 0 +26 0 *
Wi

0101100
-20 0 -19 0 +25 0 +19 0 *
Fa
0  1e-07 8 0

0101000
+18 0 *
Ve
1e-05
0 7 -6.75
0 0

0101101
*
Ed
 1e-07 1 1 0
1  14 0 0 6.28318530717959
2  22 10 0 0 6.28318530717959
4 C0 9 0 10 0
0

0101000
+16 0 -16 0 *
Wi

0101100
+15 0 *
Wi

0101100
-20 0 *
Fa
0  1e-07 9 0

0101000
+14 0 +13 0 *
Ve
1e-05
0 0.5 -6.75
0 0

0101101
*
Ed
 1e-07 1 1 0
1  15 0 0 6.28318530717959
2  23 10 0 0 6.28318530717959
2  24 7 0 0 6.28318530717959
4 C0 10 0 7 0
0

0101000
+11 0 -11 0 *
Ed
 1e-05 1 1 0
1  16 0 -7 -0.5
3  25 26CN 10 0 -7 -0.5
0

0101000
-11 0 +16 0 *
Wi

0101100
-10 0 -9 0 +15 0 +9 0 *
Fa
0  1e-07 10 0

0101000
+8 0 *
Ed
 1e-05 1 1 0
1  17 0 0 0.707106781186547
3  27 28CN 7 0 0 0.707106781186547
0

0101000
-31 0 +11 0 *
Wi

0101100
-30 0 -6 0 +10 0 +6 0 *
Fa
0  1e-07 7 0

0101000
+5 0 *
Sh

0101100
-47 0 +42 0 +37 0 +32 0 -27 0 -22 0 -17 0 +12 0 -7 0 -4 0 
*
So

0100000
+3 0 *
Co

1100000
+2 1 *

+1 0 