DBRep_DrawableShape

CASCADE Topology V1, (c) Matra-Datavision
Locations 3
1
              1               0               0               0 
              0               1               0               0 
              0               0               1               0 
1
              1               0               0               0 
              0               1               0               0 
              0               0               1              11 
2  2 -1 0
Curve2ds 5
1 0 0 0 -1 
1 6.2831853071795862 0 0 -1 
2 0 0 1 0 -0 1 1
1 0 0 1 0 
1 0 -11 1 0 
Curves 2
1 1 -2.4492935982947064e-16 0 0 0 1 
2 0 0 0 0 0 1 1 0 -0 -0 1 0 1
Polygon3D 0
PolygonOnTriangulations 0
Surfaces 2
2 0 0 0 -0 -0 -1 1 0 -0 -0 1 0 1
1 0 0 0 0 0 1 1 0 -0 -0 1 0 
Triangulations 0

TShapes 10
Ve
1e-07
1 -2.44929359829471e-16 0
0 0

0101101
*
Ed
 1e-07 1 1 0
1  1 0 0 11
3  1 2CN 1 0 0 11
0

0101000
+10 0 -10 2 *
Ed
 1e-07 1 1 0
1  2 0 0 6.28318530717959
2  3 2 0 0 6.28318530717959
2  4 1 0 0 6.28318530717959
2  5 1 3 0 6.28318530717959
0

0101000
+10 0 -10 0 *
Wi

0101100
+9 0 -9 0 -8 0 +8 2 *
Fa
0  1e-07 1 0

0111000
+7 0 *
Wi

0101100
-8 0 *
Fa
0  1e-07 2 0

0111000
-5 0 *
Sh

0101100
+6 0 +4 0 -4 2 *
So

0100000
-3 0 *
Co

1100000
+2 1 *

+1 0 